<svg width="25" height="25" viewBox="0 0 25 25" fill="none" xmlns="http://www.w3.org/2000/svg">
<path fill-rule="evenodd" clip-rule="evenodd" d="M13.2135 3.5C13.2135 3.22386 12.9896 3 12.7135 3C12.4374 3 12.2135 3.22386 12.2135 3.5V5.0164C8.46975 5.26282 5.47632 8.25625 5.2299 12H3.7135C3.43736 12 3.2135 12.2239 3.2135 12.5C3.2135 12.7761 3.43736 13 3.7135 13H5.2299C5.47632 16.7438 8.46975 19.7372 12.2135 19.9836V21.5C12.2135 21.7761 12.4374 22 12.7135 22C12.9896 22 13.2135 21.7761 13.2135 21.5V19.9836C16.9573 19.7372 19.9507 16.7438 20.1971 13H21.7135C21.9896 13 22.2135 12.7761 22.2135 12.5C22.2135 12.2239 21.9896 12 21.7135 12H20.1971C19.9507 8.25625 16.9573 5.26282 13.2135 5.0164V3.5ZM12.7135 6C9.12365 6 6.2135 8.91015 6.2135 12.5C6.2135 16.0899 9.12365 19 12.7135 19C16.3034 19 19.2135 16.0899 19.2135 12.5C19.2135 8.91015 16.3034 6 12.7135 6ZM12.7135 17C15.1988 17 17.2135 14.9853 17.2135 12.5C17.2135 10.0147 15.1988 8 12.7135 8C10.2282 8 8.2135 10.0147 8.2135 12.5C8.2135 14.9853 10.2282 17 12.7135 17Z" fill="#00AFD5"/>
</svg>
