<svg width="14" height="13" viewBox="0 0 14 13" fill="none" xmlns="http://www.w3.org/2000/svg">
<path d="M6.80536 0.463524C6.95503 0.00286841 7.60674 0.00286996 7.75641 0.463525L8.96474 4.18237C9.03168 4.38838 9.22365 4.52786 9.44027 4.52786H13.3505C13.8349 4.52786 14.0362 5.14767 13.6444 5.43237L10.4809 7.73075C10.3057 7.85807 10.2324 8.08375 10.2993 8.28976L11.5076 12.0086C11.6573 12.4693 11.1301 12.8523 10.7382 12.5676L7.57478 10.2693C7.39953 10.1419 7.16223 10.1419 6.98699 10.2693L3.82355 12.5676C3.43169 12.8523 2.90445 12.4693 3.05413 12.0086L4.26246 8.28976C4.32939 8.08375 4.25606 7.85807 4.08082 7.73075L0.917379 5.43237C0.525522 5.14767 0.726912 4.52786 1.21127 4.52786H5.1215C5.33811 4.52786 5.53009 4.38838 5.59703 4.18237L6.80536 0.463524Z" fill="#FF7A00"/>
</svg>
