<svg width="14" height="13" viewBox="0 0 14 13" fill="none" xmlns="http://www.w3.org/2000/svg">
<path d="M6.953 0.463524C7.10268 0.00286841 7.75438 0.00286996 7.90406 0.463525L9.11238 4.18237C9.17932 4.38838 9.3713 4.52786 9.58791 4.52786H13.4981C13.9825 4.52786 14.1839 5.14767 13.792 5.43237L10.6286 7.73075C10.4533 7.85807 10.38 8.08375 10.447 8.28976L11.6553 12.0086C11.805 12.4693 11.2777 12.8523 10.8859 12.5676L7.72242 10.2693C7.54718 10.1419 7.30988 10.1419 7.13463 10.2693L3.97119 12.5676C3.57934 12.8523 3.0521 12.4693 3.20177 12.0086L4.4101 8.28976C4.47704 8.08375 4.40371 7.85807 4.22847 7.73075L1.06502 5.43237C0.673166 5.14767 0.874556 4.52786 1.35892 4.52786H5.26915C5.48576 4.52786 5.67774 4.38838 5.74467 4.18237L6.953 0.463524Z" fill="#FF7A00"/>
</svg>
