<svg width="21" height="25" viewBox="0 0 21 25" fill="none" xmlns="http://www.w3.org/2000/svg">
<path d="M6.8109 9.14543H15.6418C16.0726 9.14543 16.4163 8.77881 16.3842 8.34804L16.1368 4.87891" stroke="#848484" stroke-width="0.8" stroke-miterlimit="10" stroke-linecap="round"/>
<path d="M16.3888 11.7852L16.6179 23.1137" stroke="#848484" stroke-width="0.8" stroke-miterlimit="10" stroke-linecap="round"/>
<path d="M16.87 3.72417L17.5162 2.13854C17.6857 1.72151 17.4841 1.24491 17.0671 1.07535L15.8618 0.584998C15.4448 0.415437 14.9682 0.617068 14.7986 1.0341L14.3266 2.2027" stroke="#848484" stroke-width="0.8" stroke-linecap="round" stroke-linejoin="round"/>
<path d="M4.2629 3.72417L3.61674 2.13854C3.44718 1.72151 3.64881 1.24491 4.06584 1.07535L5.2711 0.584998C5.68812 0.415437 6.16473 0.617068 6.33429 1.0341L6.80631 2.2027" stroke="#848484" stroke-width="0.8" stroke-linecap="round" stroke-linejoin="round"/>
<path d="M17.3558 9.6543L17.6903 24.4748H3.4426L3.77714 9.6543" stroke="#848484" stroke-width="0.8" stroke-linecap="round" stroke-linejoin="round"/>
<path d="M14.9682 24.475H6.16473L6.41221 10.2686H14.7253L14.9682 24.475Z" stroke="#848484" stroke-width="0.8" stroke-linecap="round" stroke-linejoin="round"/>
<path d="M16.1551 10.2685H4.98236C4.14372 10.2685 3.47924 9.56735 3.52048 8.73329L3.68087 5.4933C3.77252 3.64188 5.29858 2.18457 7.15458 2.18457H13.9874C15.8434 2.18457 17.3695 3.64188 17.4611 5.4933L17.6215 8.73329C17.6628 9.56735 16.9937 10.2685 16.1596 10.2685H16.1551Z" stroke="#848484" stroke-width="0.8" stroke-linecap="round" stroke-linejoin="round"/>
<path d="M5.98141 4.05431C6.16472 3.86184 6.42593 3.74268 6.71464 3.74268H14.4182C14.7069 3.74268 14.9681 3.86184 15.1514 4.05431" stroke="#848484" stroke-width="0.8" stroke-linecap="round" stroke-linejoin="round"/>
<path d="M6.37096 12.4175L14.7574 16.4228" stroke="#848484" stroke-width="0.8" stroke-linecap="round" stroke-linejoin="round"/>
<path d="M6.37096 15.7632L14.629 19.7685" stroke="#848484" stroke-width="0.8" stroke-linecap="round" stroke-linejoin="round"/>
<path d="M6.37096 19.1084L14.629 23.1137" stroke="#848484" stroke-width="0.8" stroke-linecap="round" stroke-linejoin="round"/>
<path d="M14.629 12.4175L6.37096 16.4228" stroke="#848484" stroke-width="0.8" stroke-linecap="round" stroke-linejoin="round"/>
<path d="M14.629 15.7632L6.37096 19.7685" stroke="#848484" stroke-width="0.8" stroke-linecap="round" stroke-linejoin="round"/>
<path d="M14.629 19.1084L6.37096 23.1137" stroke="#848484" stroke-width="0.8" stroke-linecap="round" stroke-linejoin="round"/>
<path d="M3.62132 16.0015L1.20622 16.7347V23.1964C1.20622 23.9021 1.77907 24.4749 2.48481 24.4749H3.8138" stroke="#848484" stroke-width="0.8" stroke-linecap="round" stroke-linejoin="round"/>
<path d="M2.26025 16.4138V5.58936L1 6.99167V7.87615" stroke="#848484" stroke-width="0.8" stroke-linecap="round" stroke-linejoin="round"/>
<path d="M3.67173 11.9089H1.85698C1.49494 11.9089 1.20622 11.6156 1.20622 11.2582C1.20622 10.8961 1.49952 10.6074 1.85698 10.6074H3.67173" stroke="#848484" stroke-width="0.8" stroke-linecap="round" stroke-linejoin="round"/>
<path d="M19.7938 21.1108V23.196C19.7938 23.9017 19.2209 24.4746 18.5152 24.4746H17.1862" stroke="#848484" stroke-width="0.8" stroke-linecap="round" stroke-linejoin="round"/>
<path d="M17.5161 16.0425L19.7938 16.7345V17.7656" stroke="#848484" stroke-width="0.8" stroke-linecap="round" stroke-linejoin="round"/>
<path d="M18.7397 16.4138V5.58936L20 6.99167V7.87615" stroke="#848484" stroke-width="0.8" stroke-linecap="round" stroke-linejoin="round"/>
<path d="M17.4795 11.9089H19.143C19.5051 11.9089 19.7938 11.6156 19.7938 11.2582C19.7938 10.8961 19.5005 10.6074 19.143 10.6074H17.4566" stroke="#848484" stroke-width="0.8" stroke-linecap="round" stroke-linejoin="round"/>
</svg>
